<svg width="50" height="50" viewBox="0 0 50 50" fill="none" xmlns="http://www.w3.org/2000/svg">
<path opacity="0.4" d="M8.31215 30.5416L5.14551 27.3751C3.85384 26.0834 3.85384 23.9584 5.14551 22.6667L8.31215 19.5C8.85382 18.9583 9.29132 17.8958 9.29132 17.1458V12.6667C9.29132 10.8334 10.7913 9.33331 12.6247 9.33331H17.1038C17.8538 9.33331 18.9163 8.89587 19.458 8.35421L22.6246 5.1875C23.9163 3.89583 26.0413 3.89583 27.333 5.1875L30.4997 8.35421C31.0414 8.89587 32.1038 9.33331 32.8538 9.33331H37.333C39.1664 9.33331 40.6663 10.8334 40.6663 12.6667V17.1458C40.6663 17.8958 41.1038 18.9583 41.6455 19.5L44.8122 22.6667C46.1039 23.9584 46.1039 26.0834 44.8122 27.3751L41.6455 30.5416C41.1038 31.0833 40.6663 32.1458 40.6663 32.8958V37.375C40.6663 39.2084 39.1664 40.7083 37.333 40.7083H32.8538C32.1038 40.7083 31.0414 41.1459 30.4997 41.6875L27.333 44.8542C26.0413 46.1459 23.9163 46.1459 22.6246 44.8542L19.458 41.6875C18.9163 41.1459 17.8538 40.7083 17.1038 40.7083H12.6247C10.7913 40.7083 9.29132 39.2084 9.29132 37.375V32.8958C9.29132 32.125 8.85382 31.0625 8.31215 30.5416Z" fill="#00AC57"/>
<path d="M31.2497 33.3337C30.083 33.3337 29.1455 32.3962 29.1455 31.2503C29.1455 30.1045 30.083 29.167 31.2288 29.167C32.3747 29.167 33.3122 30.1045 33.3122 31.2503C33.3122 32.3962 32.3955 33.3337 31.2497 33.3337Z" fill="#00AC57"/>
<path d="M18.7712 20.8337C17.6045 20.8337 16.667 19.8962 16.667 18.7503C16.667 17.6045 17.6045 16.667 18.7503 16.667C19.8962 16.667 20.8337 17.6045 20.8337 18.7503C20.8337 19.8962 19.917 20.8337 18.7712 20.8337Z" fill="#00AC57"/>
<path d="M18.7497 32.8122C18.3538 32.8122 17.958 32.6665 17.6455 32.354C17.0413 31.7498 17.0413 30.7497 17.6455 30.1455L30.1455 17.6455C30.7497 17.0413 31.7497 17.0413 32.3538 17.6455C32.958 18.2497 32.958 19.2498 32.3538 19.854L19.8538 32.354C19.5413 32.6665 19.1455 32.8122 18.7497 32.8122Z" fill="#00AC57"/>
</svg>
